<?xml version="1.0" encoding="utf-8"?>
<!-- Generator: Adobe Illustrator 21.0.0, SVG Export Plug-In . SVG Version: 6.00 Build 0)  -->
<svg version="1.1" id="图层_1" xmlns="http://www.w3.org/2000/svg" xmlns:xlink="http://www.w3.org/1999/xlink" x="0px" y="0px"
	 viewBox="0 0 1133.9 1133.9" style="enable-background:new 0 0 1133.9 1133.9;" xml:space="preserve">
<style type="text/css">
	.st0{fill:#1C1C1C;}
</style>
<g>
	<g>
		<path class="st0" d="M567,28.9c-297,0-538.6,241.6-538.6,538.6c0,297,241.6,538.6,538.6,538.6c297,0,538.6-241.6,538.6-538.6
			C1105.6,270.5,864,28.9,567,28.9z M567,1044.7c-263.1,0-477.2-214.1-477.2-477.2S303.9,90.3,567,90.3
			c263.2,0,477.2,214.1,477.2,477.2S830.1,1044.7,567,1044.7z M750.5,534.4L483,380c-25.4-14.7-57.2,3.7-57.2,33V722
			c0,29.4,31.8,47.7,57.2,33.1l267.5-154.5C776,585.9,776,549.1,750.5,534.4z"/>
	</g>
</g>
</svg>
