<?xml version="1.0" encoding="utf-8"?>
<!-- Generator: Adobe Illustrator 16.0.0, SVG Export Plug-In . SVG Version: 6.00 Build 0)  -->
<!DOCTYPE svg PUBLIC "-//W3C//DTD SVG 1.1//EN" "http://www.w3.org/Graphics/SVG/1.1/DTD/svg11.dtd">
<svg version="1.1" id="图层_1" xmlns="http://www.w3.org/2000/svg" xmlns:xlink="http://www.w3.org/1999/xlink" x="0px" y="0px"
	 width="612px" height="792px" viewBox="0 0 612 792" enable-background="new 0 0 612 792" xml:space="preserve">
<path fill="#91CCF4" d="M39.78,175.068c0-12.852,10.404-23.256,22.95-23.256h504.9c12.546,0,22.949,10.404,22.949,23.256
	s-10.403,23.256-22.949,23.256H62.73C50.184,198.324,39.78,187.92,39.78,175.068L39.78,175.068z M39.78,383.76
	c0-12.852,10.404-23.256,23.257-23.256H391.68c12.546,0,22.95,10.098,23.256,22.95l0,0c0,12.852-10.404,23.256-23.256,23.256H63.036
	C50.184,407.016,39.78,396.918,39.78,383.76C39.78,384.066,39.78,383.76,39.78,383.76L39.78,383.76z M39.78,592.452
	c0-12.853,10.404-23.256,22.95-23.256h504.9c12.546,0,22.949,10.403,22.949,23.256c0,12.852-10.403,23.256-22.949,23.256l0,0H62.73
	C50.184,615.708,39.78,605.304,39.78,592.452L39.78,592.452L39.78,592.452z M448.596,310.932l86.292,72.828l-86.292,72.216
	c-7.956,8.874-7.956,22.339,0,31.212c8.567,9.486,22.95,10.099,32.436,1.53l102.511-88.739l0,0c8.874-9.181,8.874-23.869,0-32.743
	l-102.511-88.74c-0.306-0.306-0.306-0.306-0.611-0.612c-8.568-8.262-22.338-7.956-30.294,0.918
	C441.252,287.982,439.722,301.752,448.596,310.932L448.596,310.932z"/>
</svg>
