<?xml version="1.0" encoding="utf-8"?>
<!-- Generator: Adobe Illustrator 16.0.0, SVG Export Plug-In . SVG Version: 6.00 Build 0)  -->
<!DOCTYPE svg PUBLIC "-//W3C//DTD SVG 1.1//EN" "http://www.w3.org/Graphics/SVG/1.1/DTD/svg11.dtd">
<svg version="1.1" id="图层_1" xmlns="http://www.w3.org/2000/svg" xmlns:xlink="http://www.w3.org/1999/xlink" x="0px" y="0px"
	 width="612px" height="792px" viewBox="16.736 -23.743 612 792" enable-background="new 16.736 -23.743 612 792"
	 xml:space="preserve">
<path fill="#91CCF4" d="M39.78,178.128c0-12.852,10.404-23.256,22.95-23.256h504.9c12.546,0,22.948,10.404,22.948,23.256
	s-10.402,23.256-22.948,23.256H62.73C50.184,201.384,39.78,190.98,39.78,178.128L39.78,178.128z M39.78,386.819
	c0-12.852,10.404-23.256,23.257-23.256H391.68c12.546,0,22.95,10.099,23.256,22.951l0,0c0,12.852-10.404,23.254-23.256,23.254
	H63.036C50.184,410.076,39.78,399.979,39.78,386.819C39.78,387.126,39.78,386.819,39.78,386.819L39.78,386.819z M39.78,595.512
	c0-12.852,10.404-23.256,22.95-23.256h504.9c12.546,0,22.948,10.404,22.948,23.256c0,12.854-10.402,23.256-22.948,23.256l0,0H62.73
	C50.184,618.768,39.78,608.364,39.78,595.512L39.78,595.512L39.78,595.512z M584.154,313.992c8.568-9.181,7.344-22.95-1.53-31.824
	c-8.262-8.567-21.726-9.18-30.294-0.918c-0.306,0.306-0.306,0.306-0.61,0.612l-102.512,88.74c-8.873,9.18-8.873,23.562,0,32.741l0,0
	l102.512,88.74c9.484,8.568,23.867,7.956,32.436-1.53c7.956-8.874,7.956-22.338,0-31.212l-86.292-72.522L584.154,313.992
	L584.154,313.992z"/>
</svg>
