<?xml version="1.0" standalone="no"?><!DOCTYPE svg PUBLIC "-//W3C//DTD SVG 1.1//EN" "http://www.w3.org/Graphics/SVG/1.1/DTD/svg11.dtd"><svg t="1548042556918" class="icon" style="" viewBox="0 0 1024 1024" version="1.1" xmlns="http://www.w3.org/2000/svg" p-id="3333" xmlns:xlink="http://www.w3.org/1999/xlink" width="200" height="200"><defs><style type="text/css"></style></defs><path d="M800 544H224c-19.2 0-32-12.8-32-32s12.8-32 32-32h576c19.2 0 32 12.8 32 32s-12.8 32-32 32zM800 352H224c-19.2 0-32-12.8-32-32s12.8-32 32-32h576c19.2 0 32 12.8 32 32s-12.8 32-32 32zM800 736H224c-19.2 0-32-12.8-32-32s12.8-32 32-32h576c19.2 0 32 12.8 32 32s-12.8 32-32 32z" p-id="3334" fill="#666666"></path></svg>