<?xml version="1.0" standalone="no"?><!DOCTYPE svg PUBLIC "-//W3C//DTD SVG 1.1//EN" "http://www.w3.org/Graphics/SVG/1.1/DTD/svg11.dtd"><svg t="1545638558588" class="icon" style="" viewBox="0 0 1024 1024" version="1.1" xmlns="http://www.w3.org/2000/svg" p-id="2763" xmlns:xlink="http://www.w3.org/1999/xlink" width="200" height="200"><defs><style type="text/css"></style></defs><path d="M740.9 932c-11 0-21.7-2.7-31.7-7.9l-185-97.2c-7.5-3.9-16.9-3.9-24.3 0l-185 97.2c-28.3 14.8-63.7 7.5-84-16.6-12.9-15.3-18.4-35.5-14.9-55.3l35.3-205.6c1.4-8.5-1.4-17.2-7.5-23.2L94.2 477.8c-18.7-18.2-25.3-45-17.3-69.9 8.1-24.9 29.2-42.6 55-46.4l206.7-30c8.5-1.2 15.9-6.6 19.7-14.3L450.9 130c11.6-23.4 35-38 61.1-38s49.5 14.5 61.1 38l92.5 187.2c3.8 7.7 11.2 13.1 19.7 14.3l206.7 30c25.9 3.8 47 21.5 55 46.4 8.1 24.9 1.5 51.7-17.3 69.9L780.3 623.4c-6.2 6-9 14.7-7.5 23.2L808 852.2c3.4 19.9-2 40-14.9 55.3C780 923.1 761 932 740.9 932zM512 781.9c11 0 22 2.7 31.7 7.8l185 97.2c11.1 5.8 24.5 2.8 32.3-6.5 3.5-4.1 7.3-11.2 5.6-21.1l-35.3-205.6a68.22 68.22 0 0 1 19.6-60.4l149.5-145.6c7.3-7.1 9.8-17.1 6.6-26.8-3.2-9.7-11.1-16.3-21.1-17.8l-206.7-30c-22.2-3.2-41.4-17.2-51.4-37.3l-92.5-187.2c-4.5-9.1-13.3-14.6-23.5-14.6s-18.9 5.4-23.5 14.6l-92.5 187.2c-10 20.1-29.1 34-51.3 37.3L138 403c-10.1 1.5-18 8.1-21.1 17.8-3.2 9.7-0.7 19.7 6.6 26.8L273 593.3c16.1 15.7 23.4 38.2 19.6 60.4l-35.3 205.6c-1.3 7.8 0.7 15.3 5.6 21.1 7.8 9.3 21.2 12.3 32.3 6.5l185-97.2c9.8-5.1 20.8-7.8 31.8-7.8z" p-id="2764" fill="#2bcf9d"></path></svg>