<?xml version="1.0" encoding="utf-8"?>
<!-- Generator: Adobe Illustrator 19.0.0, SVG Export Plug-In . SVG Version: 6.00 Build 0)  -->
<svg version="1.1" id="图层_1" xmlns="http://www.w3.org/2000/svg" xmlns:xlink="http://www.w3.org/1999/xlink" x="0px" y="0px"
	 viewBox="-6948.1 4189.9 124.1 124.1" style="enable-background:new -6948.1 4189.9 124.1 124.1;" xml:space="preserve">
<style type="text/css">
	.st0{fill:#FFD900;}
</style>
<path class="st0" d="M-6934.3,4266.2c3.2-2.4,10.2,0,10.2,0l5.1,1.7c1.9,0.7,4,0,5.1-1.7l13.7-14.9c1.2-1.4,1.2-3.5-0.2-4.7
	c-0.1-0.1-0.3-0.2-0.4-0.3l-28.6-19.3c-1.9-1.5-2.2-4.2-0.7-6.1c0.2-0.3,0.4-0.5,0.7-0.7l1.7-1.7c8.5-5,20.4,0.1,20.4,0.1l22.1,12
	c2.3,1.2,5.1-1.7,5.1-1.7l26.8-23.4c3.9-3,9.1-1.8,11.7,0.8c2.6,2.6,3.1,6.5,0.5,10.8l-23.7,27.2c0,0-2.7,3.1-1.7,5.1l12,22.2
	c0,0,5.1,11.9,0.1,20.5l-1.7,1.7c-1.9,1.6-4.7,1.7-6.6,0.1l-18.5-28.2c-1-1.5-3.1-2-4.6-1c-0.1,0.1-0.2,0.2-0.4,0.3l-15.1,13
	c-1.5,1.3-2.8,3.5-2.4,5.4l1.7,5.1c0,0,2.4,7,0,10.2c-1.8,1.8-4.7,1.8-6.5,0c-0.4-0.4-0.8-0.9-1-1.5c-2.5-6.1-5.3-10.7-8.3-13.9
	c-3.1-3.3-8.2-6.5-15.1-9.5c-2.4-1-3.5-3.8-2.5-6.2C-6935,4267.1-6934.7,4266.6-6934.3,4266.2L-6934.3,4266.2z"/>
</svg>
