<?xml version="1.0" standalone="no"?><!DOCTYPE svg PUBLIC "-//W3C//DTD SVG 1.1//EN" "http://www.w3.org/Graphics/SVG/1.1/DTD/svg11.dtd"><svg t="1544667532353" class="icon" style="" viewBox="0 0 1024 1024" version="1.1" xmlns="http://www.w3.org/2000/svg" p-id="3785" xmlns:xlink="http://www.w3.org/1999/xlink" width="200" height="200"><defs><style type="text/css"></style></defs><path d="M557.7984 829.5168H113.5104a25.2416 25.2416 0 0 1-25.216-25.216V270.1824l413.1072 326.8352a25.5488 25.5488 0 0 0 31.6416 0.128L951.808 270.7968v138.752a25.6 25.6 0 0 0 51.2 0V245.3248a76.4928 76.4928 0 0 0-76.416-76.416H113.5104a76.4928 76.4928 0 0 0-76.416 76.416v558.976a76.4928 76.4928 0 0 0 76.416 76.416h444.288a25.6 25.6 0 0 0 0-51.2zM926.5664 220.0832c1.9712 0 3.712 0.6912 5.5552 1.1264l-414.72 323.1744L108.7488 221.056c1.5872-0.3072 3.072-0.9728 4.7616-0.9728h813.056zM977.408 703.872a25.6 25.6 0 0 0-25.6 25.6v74.8032a25.2416 25.2416 0 0 1-25.216 25.216h-75.008a25.6 25.6 0 0 0 0 51.2h75.008a76.4928 76.4928 0 0 0 76.416-76.416v-74.8032a25.6 25.6 0 0 0-25.6-25.6z" p-id="3786"></path><path d="M980.4032 631.3984a101.12 101.12 0 0 0 0-142.8736 101.12 101.12 0 0 0-142.8736 0l-32.6656 32.6656a25.5744 25.5744 0 1 0 36.1984 36.1984l32.6656-32.6656a49.8944 49.8944 0 0 1 70.4768 0c9.344 9.344 14.4896 21.8624 14.4896 35.2256s-5.1456 25.8816-14.4896 35.2256l-98.816 98.816a49.8944 49.8944 0 0 1-70.4768 0l-6.6304-6.6304a25.5744 25.5744 0 1 0-36.1984 36.1984l6.6304 6.6304c19.712 19.712 45.568 29.5424 71.4496 29.5424a100.7872 100.7872 0 0 0 71.4496-29.5424l98.7904-98.7904z" p-id="3787"></path><path d="M758.3232 781.0816l-32.6656 32.6656a49.8944 49.8944 0 0 1-70.4768 0 49.4592 49.4592 0 0 1-14.4896-35.2256c0-13.3632 5.1456-25.8816 14.4896-35.2256l98.816-98.816c18.688-18.7136 51.7632-18.688 70.4768 0l6.6304 6.6304a25.5744 25.5744 0 1 0 36.1984-36.1984l-6.6304-6.656a100.3264 100.3264 0 0 0-71.4496-29.4912 100.4032 100.4032 0 0 0-71.4496 29.4912l-98.816 98.816a100.3264 100.3264 0 0 0-29.4912 71.4496 100.7872 100.7872 0 0 0 100.9408 100.992c25.856 0 51.7376-9.856 71.4496-29.5424l32.6656-32.6656a25.5744 25.5744 0 0 0 0-36.1984 25.5488 25.5488 0 0 0-36.1984-0.0256z" p-id="3788"></path></svg>