<?xml version="1.0" standalone="no"?><!DOCTYPE svg PUBLIC "-//W3C//DTD SVG 1.1//EN" "http://www.w3.org/Graphics/SVG/1.1/DTD/svg11.dtd"><svg t="1544667573512" class="icon" style="" viewBox="0 0 1024 1024" version="1.1" xmlns="http://www.w3.org/2000/svg" p-id="4133" xmlns:xlink="http://www.w3.org/1999/xlink" width="200" height="200"><defs><style type="text/css"></style></defs><path d="M513.2288 983.04a28.7744 28.7744 0 0 1-7.2704-0.9216c-2.7648-0.7168-68.9152-18.5344-200.9088-103.0144A396.9024 396.9024 0 0 1 135.168 646.7584a28.9792 28.9792 0 0 1-0.6144-5.9392v-460.8a28.8768 28.8768 0 0 1 31.4368-28.672c1.1264 0 117.6576 10.24 190.7712-18.3296A481.792 481.792 0 0 0 491.52 48.7424a28.8768 28.8768 0 0 1 38.912 0A522.24 522.24 0 0 0 667.2384 133.12c73.1136 28.5696 189.6448 18.432 190.7712 18.3296a28.8768 28.8768 0 0 1 31.4368 28.672v460.8a28.9792 28.9792 0 0 1-0.6144 5.9392 396.9024 396.9024 0 0 1-169.984 232.1408c-131.8912 84.48-195.3792 102.4-198.0416 103.0144a28.8768 28.8768 0 0 1-7.5776 1.024zM192.2048 637.3376A346.3168 346.3168 0 0 0 336.2816 830.464c98.304 62.976 157.0816 86.4256 176.8448 93.3888 19.2512-6.9632 76.5952-30.72 174.6944-93.3888a346.3168 346.3168 0 0 0 143.9744-193.1264V210.6368c-43.9296 1.3312-124.7232 0-185.5488-23.7568a560.128 560.128 0 0 1-135.168-79.36 527.36 527.36 0 0 1-133.12 79.36c-60.8256 23.7568-141.7216 25.088-185.5488 23.7568zM491.52 664.1664a28.7744 28.7744 0 0 1-17.3056-5.7344L299.6224 527.5648A28.8768 28.8768 0 0 1 334.2336 481.28l153.6 114.7904L697.856 352.256a28.8768 28.8768 0 1 1 43.7248 37.6832L513.7408 654.2336a28.7744 28.7744 0 0 1-22.2208 9.9328z" p-id="4134"></path></svg>